<?xml version="1.0" encoding="utf-8"?>
<!-- Generator: Adobe Illustrator 13.0.0, SVG Export Plug-In . SVG Version: 6.00 Build 14948)  -->
<!DOCTYPE svg PUBLIC "-//W3C//DTD SVG 1.1//EN" "http://www.w3.org/Graphics/SVG/1.1/DTD/svg11.dtd">
<svg version="1.1" id="Layer_1" xmlns="http://www.w3.org/2000/svg" xmlns:xlink="http://www.w3.org/1999/xlink" x="0px" y="0px"
	 width="50px" height="50px" enable-background="new 0 0 50 50" xml:space="preserve">
<path fill-rule="evenodd" clip-rule="evenodd" fill="rgba(0, 0, 0, 0.7)" d="M7.87,20.614c-0.03-2.242,0.042-4.476,0.61-6.66
	c0.967-3.711,3.468-5.887,7.054-6.889c3.313-0.925,6.703-0.987,10.114-0.754c2.35,0.161,4.682,0.426,6.959,1.052
	c5.824,1.599,8.604,5.141,8.772,11.232c0.036,1.306,0.055,2.617-0.01,3.921c-0.044,0.864,0.255,1.312,1.074,1.612
	c2.009,0.739,3.853,1.769,5.333,3.361c0.477,0.514,0.912,1.055,1.246,1.671c1.097,2.017,0.426,4.019-1.674,4.982
	c-1.227,0.563-2.513,0.905-3.856,1.022c-4.51,0.395-8.98,0.137-13.447-0.579c-5.021-0.81-10.01-1.738-14.925-3.043
	c-3.649-0.971-7.297-1.959-10.791-3.417c-1.209-0.506-2.367-1.114-3.321-2.044c-0.319-0.313-0.614-0.67-0.409-1.15
	c0.192-0.46,0.654-0.398,1.057-0.438c1.305-0.131,2.557,0.407,3.894,0.201c2.31-0.359,2.319-0.292,2.319-2.599
	C7.87,21.603,7.87,21.108,7.87,20.614z"/>
</svg>
